HIERARCHY
ROOT Hips
{
	OFFSET 0.000000 0.000000 0.000000 
	CHANNELS 6 Xposition Yposition Zposition Zrotation Yrotation Xrotation
	JOINT LeftUpLeg
	{
		OFFSET 1.363060 -1.794630 0.839290 
		CHANNELS 3 Zrotation Yrotation Xrotation
		JOINT LeftLeg
		{
			OFFSET 2.448110 -6.726130 0.000000 
			CHANNELS 3 Zrotation Yrotation Xrotation
			JOINT LeftFoot
			{
				OFFSET 2.562200 -7.039590 0.000000 
				CHANNELS 3 Zrotation Yrotation Xrotation
				JOINT LeftToeBase
				{
					OFFSET 0.157640 -0.433110 2.322550 
					CHANNELS 3 Zrotation Yrotation Xrotation
					End Site
					{
						OFFSET 0.000000 0.000000 0.000000 
					}
				}
			}
		}
	}
	JOINT RightUpLeg
	{
		OFFSET -1.305520 -1.794630 0.839290 
		CHANNELS 3 Zrotation Yrotation Xrotation
		JOINT RightLeg
		{
			OFFSET -2.542530 -6.985550 0.000000 
			CHANNELS 3 Zrotation Yrotation Xrotation
			JOINT RightFoot
			{
				OFFSET -2.568260 -7.056230 0.000000 
				CHANNELS 3 Zrotation Yrotation Xrotation
				JOINT RightToeBase
				{
					OFFSET -0.164730 -0.452590 2.363150 
					CHANNELS 3 Zrotation Yrotation Xrotation
					End Site
					{
						OFFSET 0.000000 0.000000 0.000000 
					}
				}
			}
		}
	}
	JOINT Spine
	{
		OFFSET 0.028270 2.035590 -0.193380 
		CHANNELS 3 Zrotation Yrotation Xrotation
		JOINT Spine1
		{
			OFFSET 0.056720 2.048850 -0.042750 
			CHANNELS 3 Zrotation Yrotation Xrotation
			JOINT Neck1
			{
				OFFSET -0.054170 1.746240 0.172020 
				CHANNELS 3 Zrotation Yrotation Xrotation
				JOINT Head
				{
					OFFSET 0.104070 1.761360 -0.123970 
					CHANNELS 3 Zrotation Yrotation Xrotation
					End Site
					{
						OFFSET 0.000000 0.000000 0.000000 
					}
				}
			}
			JOINT LeftArm
			{
				OFFSET 3.362410 1.200890 -0.311210 
				CHANNELS 3 Zrotation Yrotation Xrotation
				JOINT LeftForeArm
				{
					OFFSET 4.983000 -0.000000 -0.000000 
					CHANNELS 3 Zrotation Yrotation Xrotation
					JOINT LeftHand
					{
						OFFSET 3.483560 -0.000000 -0.000000 
						CHANNELS 3 Zrotation Yrotation Xrotation
						JOINT LeftHandIndex1
						{
							OFFSET 0.715260 -0.000000 -0.000000 
							CHANNELS 3 Zrotation Yrotation Xrotation
							End Site
							{
								OFFSET 0.000000 0.000000 0.000000 
							}
						}
					}
				}
			}
			JOINT RightArm
			{
				OFFSET -3.136600 1.374050 -0.404650 
				CHANNELS 3 Zrotation Yrotation Xrotation
				JOINT RightForeArm
				{
					OFFSET -5.241900 -0.000000 -0.000000 
					CHANNELS 3 Zrotation Yrotation Xrotation
					JOINT RightHand
					{
						OFFSET -3.444170 -0.000000 -0.000000 
						CHANNELS 3 Zrotation Yrotation Xrotation
						JOINT RightHandIndex1
						{
							OFFSET -0.622530 -0.000000 -0.000000 
							CHANNELS 3 Zrotation Yrotation Xrotation
							End Site
							{
								OFFSET 0.000000 0.000000 0.000000 
							}
						}
					}
				}
			}
		}
	}
}
MOTION
Frames: 13
Frame Time: 0.041667
26.646590 16.073699 3.906858 158.596981 -84.340817 -178.598527 2.427370 12.360067 -32.732010 2.324208 11.962350 25.346667 7.962839 2.743202 61.739586 0.037500 -1.249700 -3.436200 -2.175751 -9.399083 -32.719753 -7.865124 -14.728174 28.574250 -3.378936 -26.207798 57.712078 -0.012500 0.722300 -1.984900 0.630900 3.261614 -1.511325 1.448410 -0.454471 5.916088 4.943782 4.336294 5.883622 2.861900 2.083200 6.654900 -78.513292 -31.551980 62.657649 34.477270 -39.005768 -22.185310 -4.341569 -4.702388 29.813959 -7.125000 0.000000 0.000000 72.779276 28.880310 48.965522 -41.460962 44.404931 -30.429954 0.449200 -0.289112 7.928306 7.125000 0.000000 0.000000 
26.654073 16.074680 3.902074 160.699323 -84.373529 179.280483 2.596362 12.269691 -32.635111 2.333230 11.951707 25.269452 7.971931 2.860288 61.780249 0.037000 -1.241100 -3.412400 -2.103482 -9.341336 -32.721966 -7.844335 -14.741734 28.530502 -3.347713 -26.351020 57.697492 -0.014300 0.772700 -2.123600 0.651733 3.262699 -1.525787 1.627241 -0.509905 6.089098 5.117186 4.345300 5.984218 3.165700 2.090300 6.919800 -78.988041 -31.671595 62.566610 34.000093 -38.690776 -21.726751 -4.253569 -4.518895 31.454965 -7.125000 0.000000 0.000000 72.870141 29.163762 49.172512 -41.261458 44.274505 -30.189460 0.461010 -0.309335 8.122723 7.125000 0.000000 0.000000 
26.657998 16.073086 3.895205 159.926876 -84.212780 -179.985333 2.587981 12.321949 -32.624092 2.335755 11.949968 25.230507 7.963509 2.992569 61.771328 0.036500 -1.233500 -3.391400 -2.225415 -9.078929 -32.599262 -7.869005 -14.769785 28.541331 -3.275030 -26.497208 57.599098 -0.016700 0.834200 -2.292700 0.651332 3.411674 -1.527810 1.831488 -0.481636 6.143826 5.258822 4.218346 5.988424 3.372500 2.039600 6.997100 -79.518519 -31.817531 62.707590 33.658445 -38.461149 -21.366711 -4.270167 -4.275532 32.815924 -7.125000 0.000000 0.000000 72.675509 29.221376 49.152859 -41.175447 44.227107 -30.102765 0.473545 -0.357702 8.376387 7.125000 0.000000 0.000000 
26.665481 16.065848 3.889439 156.337073 -83.931513 -176.550251 2.418866 12.459284 -32.649051 2.334741 11.966354 25.239374 7.944671 3.118521 61.767637 0.030800 -1.132500 -3.113500 -2.503984 -8.769563 -32.375566 -7.895661 -14.774676 28.527926 -3.287302 -26.511114 57.617554 -0.017200 0.846900 -2.327800 0.636742 3.501494 -1.530843 1.993178 -0.448069 5.955149 5.388692 4.029268 5.930561 3.521500 1.970100 6.890100 -79.794349 -31.712244 62.968955 33.440644 -38.326595 -21.130151 -4.178155 -4.191323 33.614160 -7.125000 0.000000 0.000000 72.696123 29.061238 49.135292 -41.117067 44.217047 -30.090375 0.422318 -0.376270 8.550891 7.125000 0.000000 0.000000 
26.675172 16.059838 3.886127 151.706690 -83.701325 -172.103886 2.292016 12.430958 -32.588797 2.328036 12.009498 25.245547 7.946336 3.176043 61.900679 0.013100 -0.740000 -2.033800 -2.822210 -8.528539 -32.142058 -7.926871 -14.763295 28.518109 -3.350044 -26.438752 57.700843 -0.015300 0.797500 -2.191700 0.633583 3.423466 -1.530526 2.221855 -0.523251 5.890583 5.505899 3.755702 5.885092 3.664400 1.854300 6.853100 -79.975063 -31.630983 62.903358 33.202367 -38.176285 -20.922643 -3.970134 -4.259972 34.208763 -7.125000 0.000000 0.000000 72.952804 28.992306 49.385640 -40.990489 44.179938 -29.971000 0.395746 -0.386003 8.915727 7.125000 0.000000 0.000000 
26.680692 16.058734 3.884287 150.717468 -83.713893 -171.197305 2.306472 12.368923 -32.507752 2.345135 12.036431 25.197811 7.940419 3.367611 62.002015 0.003400 -0.375400 -1.031400 -2.928555 -8.414358 -32.022970 -7.956179 -14.775235 28.520978 -3.333190 -26.552938 57.692138 -0.012000 0.706000 -1.940200 0.652484 3.321121 -1.525346 2.294531 -0.608856 6.007756 5.542843 3.438643 5.827524 3.660100 1.714600 6.844100 -80.288061 -31.746247 62.778043 32.718158 -37.864903 -20.494837 -3.828421 -4.213558 34.676681 -7.125000 0.000000 0.000000 73.179613 29.184162 49.565676 -40.745415 44.066506 -29.736589 0.366566 -0.393015 9.394842 7.125000 0.000000 0.000000 
26.682655 16.053582 3.884287 151.066449 -83.772059 -171.594539 2.204083 12.501930 -32.567786 2.392518 12.049725 25.161476 7.868964 3.812245 61.881746 0.008200 -0.585900 -1.610000 -2.942550 -8.371519 -31.973796 -7.970870 -14.784633 28.511664 -3.304736 -26.687486 57.671941 -0.010600 0.663600 -1.823700 0.675608 3.225749 -1.528554 2.376949 -0.680120 6.076583 5.655637 3.302691 5.797206 3.803500 1.668300 6.831000 -80.616835 -31.806961 62.744480 32.259327 -37.569990 -20.080215 -3.755660 -4.110671 34.855096 -7.125000 0.000000 0.000000 73.250654 29.524708 49.538763 -40.437630 43.884557 -29.470980 0.299363 -0.386734 9.647009 7.125000 0.000000 0.000000 
26.686580 16.056280 3.884655 149.935372 -83.790573 -170.557683 2.225652 12.352156 -32.465568 2.375079 12.057382 25.155554 7.846392 3.857423 61.792438 0.017900 -0.863300 -2.372700 -3.040878 -8.321390 -31.855041 -7.981375 -14.766469 28.456854 -3.296191 -26.798716 57.674360 -0.010800 0.671400 -1.845100 0.698358 3.094182 -1.532491 2.671798 -0.807393 6.162896 5.851180 3.299690 5.845843 4.146400 1.678200 6.936200 -80.938607 -31.785766 62.538510 31.993065 -37.396151 -19.856263 -3.714270 -4.088607 34.989470 -7.125000 0.000000 0.000000 73.244807 29.737206 49.648003 -40.296155 43.799691 -29.338128 0.278211 -0.394446 9.550672 7.125000 0.000000 0.000000 
26.700441 16.070264 3.883551 148.599842 -83.761535 -169.288392 2.437501 11.955527 -32.221349 2.317090 12.061084 25.132102 7.899899 3.564839 61.892108 0.021800 -0.954300 -2.623100 -3.191039 -8.152881 -31.684128 -7.995470 -14.759773 28.379409 -3.269167 -26.997276 57.663161 -0.007600 0.563000 -1.547200 0.706301 3.020799 -1.535995 2.765013 -0.867794 6.198943 5.958141 3.122252 5.863181 4.249900 1.606800 7.026200 -81.132675 -31.779823 62.297325 31.667114 -37.143091 -19.596520 -4.153937 -4.624216 35.210030 -7.125000 0.000000 0.000000 73.629926 29.836513 49.727146 -40.103485 43.680074 -29.125737 0.299696 -0.405696 9.488831 7.125000 0.000000 0.000000 
26.710010 16.070755 3.880607 148.808522 -83.715591 -169.552573 2.462444 11.933918 -32.196838 2.349377 12.075444 25.095907 7.880147 3.784930 61.923566 0.038700 -1.269500 -3.490700 -3.278785 -7.929859 -31.561988 -8.009731 -14.788072 28.350913 -3.226739 -27.203146 57.633576 -0.004300 0.421800 -1.159000 0.694391 3.071018 -1.542277 2.573452 -0.791296 6.054270 6.037310 2.643207 5.752802 4.218600 1.413400 6.916700 -81.265513 -31.773912 62.383025 31.374430 -36.936546 -19.294235 -4.063822 -4.198626 35.245861 -7.125000 0.000000 0.000000 74.185373 29.736792 49.450574 -39.876489 43.540241 -28.908203 0.309547 -0.430484 9.655120 7.125000 0.000000 0.000000 
26.702159 16.051251 3.877418 150.147072 -83.771812 -170.962412 2.289417 12.240108 -32.344590 2.436443 12.086057 25.054204 7.777143 4.441118 61.769791 0.055100 -1.514900 -4.166800 -3.283458 -7.782177 -31.506865 -8.038973 -14.834315 28.406938 -3.157550 -27.361601 57.548772 -0.001300 0.232800 -0.639700 0.694205 3.053204 -1.550432 2.490023 -0.761427 5.878727 6.161870 2.118350 5.608613 4.360200 1.197000 6.712400 -81.431019 -31.692389 62.370074 31.129994 -36.800052 -19.074212 -3.584610 -3.546572 34.901759 -7.125000 0.000000 0.000000 74.539150 29.457135 49.314793 -39.884311 43.562187 -28.916508 0.326923 -0.438378 9.740331 7.125000 0.000000 0.000000 
26.699828 16.044381 3.872756 150.896885 -83.825596 -171.752239 2.329430 12.228234 -32.284866 2.450988 12.083042 25.001374 7.749238 4.665419 61.716064 0.041500 -1.314700 -3.615200 -3.291220 -7.684429 -31.450929 -8.072848 -14.866305 28.460240 -3.076221 -27.508395 57.439243 -0.000300 0.119400 -0.328000 0.716320 2.888010 -1.546676 2.586209 -0.863336 5.909690 6.277800 1.716983 5.525025 4.515400 1.029100 6.588900 -81.521771 -31.750247 61.848550 30.749939 -36.494445 -18.764559 -3.946366 -3.869993 34.467664 -7.125000 0.000000 0.000000 74.704409 29.488819 49.648512 -39.858293 43.581164 -28.870955 0.324964 -0.413474 9.354374 7.125000 0.000000 0.000000 
26.708047 16.045976 3.866746 151.020904 -83.743725 -171.903447 2.551131 11.981833 -32.081057 2.413546 12.071492 24.953791 7.796695 4.499962 61.785469 0.022900 -0.975900 -2.682600 -3.349773 -7.499085 -31.357035 -8.117534 -14.905187 28.470510 -2.986051 -27.794276 57.346805 -0.001500 0.254200 -0.698400 0.731666 2.795941 -1.542923 2.654495 -0.938231 6.003616 6.392557 1.274399 5.486895 4.590100 0.840600 6.622100 -81.619968 -31.951026 61.230030 30.253391 -36.101870 -18.360307 -4.073948 -3.985441 34.113483 -7.125000 0.000000 0.000000 74.808260 29.801811 49.850408 -39.546438 43.415262 -28.568032 0.279036 -0.432586 8.994600 7.125000 0.000000 0.000000 
